<?xml version="1.0" encoding="UTF-8"?>
<!DOCTYPE svg PUBLIC "-//W3C//DTD SVG 1.1//EN" "http://www.w3.org/Graphics/SVG/1.1/DTD/svg11.dtd">
<svg xmlns="http://www.w3.org/2000/svg" version="1.1" width="720px" height="720px" style="shape-rendering:geometricPrecision; text-rendering:geometricPrecision; image-rendering:optimizeQuality; fill-rule:evenodd; clip-rule:evenodd" xmlns:xlink="http://www.w3.org/1999/xlink">
<g><path style="opacity:1" fill="#000000" d="M 246.5,295.5 C 247.833,295.5 249.167,295.5 250.5,295.5C 250.5,296.833 250.5,298.167 250.5,299.5C 249.167,299.5 247.833,299.5 246.5,299.5C 246.5,298.167 246.5,296.833 246.5,295.5 Z"/></g>
<g><path style="opacity:1" fill="#050909" d="M 686.5,297.5 C 681.745,297.742 678.078,299.909 675.5,304C 670.466,306.834 665.466,308.668 660.5,309.5C 664.299,306.496 668.632,304.33 673.5,303C 676.254,299.066 679.921,296.566 684.5,295.5C 685.167,295.667 685.833,295.833 686.5,296C 687.738,296.69 687.738,297.19 686.5,297.5 Z"/></g>
<g><path style="opacity:1" fill="#254141" d="M 521.5,297.5 C 518.65,301.684 514.65,304.017 509.5,304.5C 512.504,300.503 516.504,298.17 521.5,297.5 Z"/></g>
<g><path style="opacity:1" fill="#000000" d="M 239.5,301.5 C 241.764,302.581 243.931,303.915 246,305.5C 246.388,307.076 245.888,308.409 244.5,309.5C 242.889,308.68 242.222,307.346 242.5,305.5C 241.5,305.5 240.5,305.5 239.5,305.5C 239.5,304.167 239.5,302.833 239.5,301.5 Z"/></g>
<g><path style="opacity:1" fill="#000000" d="M 259.5,305.5 C 260.5,305.5 261.5,305.5 262.5,305.5C 262.642,309.223 261.309,310.056 258.5,308C 259.252,307.329 259.586,306.496 259.5,305.5 Z"/></g>
<g><path style="opacity:1" fill="#08100f" d="M 521.5,297.5 C 516.504,298.17 512.504,300.503 509.5,304.5C 509.5,305.167 509.167,305.5 508.5,305.5C 505.077,306.363 501.744,307.53 498.5,309C 497.226,309.977 497.226,310.811 498.5,311.5C 498.167,312.5 497.5,313.167 496.5,313.5C 496.715,311.821 496.048,310.821 494.5,310.5C 498.402,306.792 503.069,304.292 508.5,303C 511.254,299.066 514.921,296.566 519.5,295.5C 520.713,295.747 521.38,296.414 521.5,297.5 Z"/></g>
<g><path style="opacity:1" fill="#264040" d="M 686.5,297.5 C 683.284,301.452 679.284,304.452 674.5,306.5C 676.023,308.586 675.69,310.252 673.5,311.5C 672.719,310.271 672.219,308.938 672,307.5C 668.712,309.893 665.212,311.893 661.5,313.5C 659.466,312.426 659.133,311.093 660.5,309.5C 665.466,308.668 670.466,306.834 675.5,304C 678.078,299.909 681.745,297.742 686.5,297.5 Z"/></g>
<g><path style="opacity:1" fill="#000000" d="M 508.5,306.5 C 509.338,306.842 509.672,307.508 509.5,308.5C 508.5,308.5 507.5,308.5 506.5,308.5C 506.5,308.167 506.5,307.833 506.5,307.5C 507.167,307.167 507.833,306.833 508.5,306.5 Z"/></g>
<g><path style="opacity:1" fill="#000000" d="M 269.5,309.5 C 270.833,309.5 272.167,309.5 273.5,309.5C 273.5,310.5 273.5,311.5 273.5,312.5C 271.027,312.912 269.694,311.912 269.5,309.5 Z"/></g>
<g><path style="opacity:1" fill="#244545" d="M 508.5,305.5 C 508.5,305.833 508.5,306.167 508.5,306.5C 507.833,306.833 507.167,307.167 506.5,307.5C 505.833,307.5 505.5,307.833 505.5,308.5C 503.453,310.075 501.119,311.075 498.5,311.5C 497.226,310.811 497.226,309.977 498.5,309C 501.744,307.53 505.077,306.363 508.5,305.5 Z"/></g>
<g><path style="opacity:1" fill="#2a4d4d" d="M 505.5,308.5 C 505.833,308.5 506.167,308.5 506.5,308.5C 507.5,308.5 508.5,308.5 509.5,308.5C 508.167,312.5 506.833,312.5 505.5,308.5 Z"/></g>
<g><path style="opacity:1" fill="#1d3636" d="M 677.5,306.5 C 679.213,307.635 679.88,309.302 679.5,311.5C 678.5,311.5 677.5,311.5 676.5,311.5C 676.629,309.784 676.962,308.117 677.5,306.5 Z"/></g>
<g><path style="opacity:1" fill="#000000" d="M -0.5,387.5 C -0.5,385.833 -0.5,384.167 -0.5,382.5C 1.87827,381.308 3.87827,379.641 5.5,377.5C 8.95182,376.274 12.2852,374.774 15.5,373C 17.2112,371.867 17.7112,370.367 17,368.5C 15.5064,369.747 14.0064,369.747 12.5,368.5C 13.1743,366.483 14.3409,364.817 16,363.5C 17.1711,346.862 17.3378,330.195 16.5,313.5C 19.0021,313.251 21.5021,312.917 24,312.5C 25.9305,312.908 27.7638,313.575 29.5,314.5C 35.7617,313.729 42.0951,313.729 48.5,314.5C 48.5,313.167 48.5,311.833 48.5,310.5C 50.1667,310.5 51.8333,310.5 53.5,310.5C 53.5,311.5 53.5,312.5 53.5,313.5C 56.1667,312.5 58.8333,311.5 61.5,310.5C 61.3433,311.873 61.51,313.207 62,314.5C 64.2002,312.169 66.2002,312.169 68,314.5C 68.8388,313.376 70.0055,312.709 71.5,312.5C 76.5317,315.181 81.865,317.014 87.5,318C 93.642,321.924 97.3087,327.59 98.5,335C 96.9876,337.114 96.6542,339.281 97.5,341.5C 96.3523,343.149 95.019,344.649 93.5,346C 90.0408,346.863 86.7074,348.03 83.5,349.5C 85.813,350.273 88.1463,350.94 90.5,351.5C 91.3857,350.675 91.719,349.675 91.5,348.5C 92.8333,348.5 94.1667,348.5 95.5,348.5C 95.7733,350.451 95.1066,351.951 93.5,353C 96.4249,355.077 98.2582,357.91 99,361.5C 103.923,357.955 108.756,354.288 113.5,350.5C 114.506,349.604 114.506,348.938 113.5,348.5C 112.476,349.853 111.143,350.52 109.5,350.5C 109.5,348.5 109.5,346.5 109.5,344.5C 111.144,344.286 112.644,344.62 114,345.5C 116.676,341.707 118.176,337.374 118.5,332.5C 120.465,326.635 122.798,320.969 125.5,315.5C 127.311,314.261 129.311,313.594 131.5,313.5C 134.297,314.314 137.13,314.981 140,315.5C 143.974,314.673 147.974,314.006 152,313.5C 155.352,315.185 158.852,316.519 162.5,317.5C 162.672,319.492 162.005,321.158 160.5,322.5C 160.808,323.308 161.308,323.975 162,324.5C 162.173,328.541 162.673,332.541 163.5,336.5C 167.001,340.742 169.667,345.409 171.5,350.5C 172.925,356.592 174.425,362.592 176,368.5C 180.826,375.476 183.992,383.142 185.5,391.5C 177.493,391.334 169.493,391.5 161.5,392C 160.975,392.692 160.308,393.192 159.5,393.5C 157.118,391.929 154.451,391.096 151.5,391C 150.13,389.559 149.13,387.892 148.5,386C 143.845,385.501 139.179,385.334 134.5,385.5C 134.5,387.5 134.5,389.5 134.5,391.5C 123.5,391.5 112.5,391.5 101.5,391.5C 101.227,389.549 101.893,388.049 103.5,387C 102.426,386.261 101.759,385.261 101.5,384C 104.592,378.558 106.592,372.725 107.5,366.5C 104.833,366.5 102.167,366.5 99.5,366.5C 99.3184,368.591 99.6518,370.591 100.5,372.5C 99.8333,373.167 99.1667,373.833 98.5,374.5C 99.3256,375.451 99.4922,376.451 99,377.5C 96.3795,380.576 93.8795,383.742 91.5,387C 89.5273,387.495 87.5273,387.662 85.5,387.5C 84.5279,393.157 82.1946,393.823 78.5,389.5C 77.5,390.167 76.5,390.833 75.5,391.5C 73.4272,390.531 71.2605,389.865 69,389.5C 61.2549,390.751 53.4216,391.418 45.5,391.5C 38.5,391.333 31.5,391.167 24.5,391C 24,390.5 23.5,390 23,389.5C 21.2458,391.25 19.0792,391.917 16.5,391.5C 17.388,388.478 17.7213,385.478 17.5,382.5C 16.846,380.885 16.346,379.218 16,377.5C 13.1022,380.438 9.60223,382.271 5.5,383C 4.74539,386.207 2.74539,387.707 -0.5,387.5 Z M 53.5,327.5 C 55.1765,328.183 55.8432,329.517 55.5,331.5C 57.2624,331.643 58.9291,331.309 60.5,330.5C 61.4556,331.865 62.1223,333.365 62.5,335C 60.7665,337.001 58.9332,338.834 57,340.5C 55.4029,339.115 53.5695,338.449 51.5,338.5C 51.1134,334.556 51.78,330.889 53.5,327.5 Z M 149.5,334.5 C 148.022,334.762 146.689,334.429 145.5,333.5C 146.167,333.167 146.833,332.833 147.5,332.5C 148.713,332.747 149.38,333.414 149.5,334.5 Z M 149.5,334.5 C 151.167,334.5 152.833,334.5 154.5,334.5C 154.665,337.518 154.498,340.518 154,343.5C 152.333,342.167 150.667,340.833 149,339.5C 149.019,337.893 149.185,336.226 149.5,334.5 Z M 136.5,339.5 C 139.001,339.511 139.168,340.178 137,341.5C 136.536,340.906 136.369,340.239 136.5,339.5 Z M 141.5,343.5 C 144.245,352.53 145.411,361.863 145,371.5C 141.108,372.471 138.941,370.804 138.5,366.5C 140.159,358.952 141.159,351.286 141.5,343.5 Z M 62.5,373.5 C 59.6233,372.738 56.79,372.404 54,372.5C 53.6397,370.579 52.8064,368.912 51.5,367.5C 51.9767,366.522 52.6433,365.689 53.5,365C 52.5,364.667 51.5,364.333 50.5,364C 51.4438,361.281 51.7771,358.448 51.5,355.5C 52.8734,355.343 54.2068,355.51 55.5,356C 57.3501,358.018 59.3501,359.851 61.5,361.5C 61.1667,362.167 60.8333,362.833 60.5,363.5C 62.8507,366.586 63.5173,369.919 62.5,373.5 Z M 33.5,362.5 C 35.1042,363.287 35.7709,364.62 35.5,366.5C 31.1547,366.702 30.488,365.369 33.5,362.5 Z M 62.5,373.5 C 65.0009,373.511 65.1676,374.178 63,375.5C 62.5357,374.906 62.369,374.239 62.5,373.5 Z M 54.5,375.5 C 55.7733,376.077 55.7733,376.743 54.5,377.5C 53.537,377.03 53.537,376.363 54.5,375.5 Z"/></g>
<g><path style="opacity:1" fill="#1a2d2d" d="M 512.5,306.5 C 515.046,309.105 514.379,310.772 510.5,311.5C 510.392,309.486 511.058,307.82 512.5,306.5 Z"/></g>
<g><path style="opacity:1" fill="#000000" d="M 472.5,312.5 C 474.338,311.322 476.005,311.655 477.5,313.5C 475.784,313.371 474.117,313.038 472.5,312.5 Z"/></g>
<g><path style="opacity:1" fill="#2b4b4b" d="M 494.5,310.5 C 496.048,310.821 496.715,311.821 496.5,313.5C 496.167,313.5 495.833,313.5 495.5,313.5C 494.833,313.5 494.5,313.167 494.5,312.5C 494.5,311.833 494.5,311.167 494.5,310.5 Z"/></g>
<g><path style="opacity:1" fill="#010303" d="M 454.5,313.5 C 455.097,312.861 455.93,312.528 457,312.5C 459.41,313.748 461.91,314.748 464.5,315.5C 463.828,316.267 462.995,316.934 462,317.5C 459.925,315.337 457.425,314.004 454.5,313.5 Z"/></g>
<g><path style="opacity:1" fill="#000000" d="M 386.5,383.5 C 386.5,383.833 386.5,384.167 386.5,384.5C 386.5,386.833 386.5,389.167 386.5,391.5C 378.493,391.334 370.493,391.5 362.5,392C 361.584,392.374 360.75,392.874 360,393.5C 357.734,392.044 355.234,391.21 352.5,391C 351.13,389.559 350.13,387.892 349.5,386C 344.845,385.501 340.179,385.334 335.5,385.5C 335.5,387.5 335.5,389.5 335.5,391.5C 324.5,391.5 313.5,391.5 302.5,391.5C 302.617,389.516 301.95,387.85 300.5,386.5C 304.325,379.179 307.325,371.512 309.5,363.5C 308.902,362.205 308.402,360.872 308,359.5C 307.5,360.667 306.667,361.5 305.5,362C 307.037,363.11 307.703,364.61 307.5,366.5C 305.167,366.5 302.833,366.5 300.5,366.5C 300.269,371.544 299.269,376.378 297.5,381C 297.957,381.414 298.291,381.914 298.5,382.5C 297.167,383.833 295.833,385.167 294.5,386.5C 291.564,387.115 288.897,388.282 286.5,390C 278.507,390.5 270.507,390.666 262.5,390.5C 262.196,386.785 262.863,383.285 264.5,380C 263.624,378.414 262.624,376.914 261.5,375.5C 260.914,375.709 260.414,376.043 260,376.5C 259.655,381.809 259.489,386.975 259.5,392C 256.613,391.519 253.613,391.019 250.5,390.5C 247.842,390.69 245.342,391.357 243,392.5C 237.817,391.007 232.65,389.674 227.5,388.5C 228.559,381.97 225.892,377.304 219.5,374.5C 218.779,376.686 218.113,378.853 217.5,381C 218.451,384.057 218.784,387.223 218.5,390.5C 214.758,391.274 212.258,389.941 211,386.5C 210.691,387.766 210.191,388.933 209.5,390C 204.833,390.333 200.167,390.667 195.5,391C 194.892,391.87 194.059,392.37 193,392.5C 191.079,390.997 188.912,390.331 186.5,390.5C 184.873,386.8 185.206,383.3 187.5,380C 186.718,377.26 186.218,374.426 186,371.5C 183.594,370.435 181.427,369.102 179.5,367.5C 180.689,366.571 182.022,366.238 183.5,366.5C 184.262,363.013 185.429,359.679 187,356.5C 187.167,353 187.333,349.5 187.5,346C 186.951,340.239 186.951,334.572 187.5,329C 186.874,328.25 186.374,327.416 186,326.5C 185.501,322.848 185.335,319.182 185.5,315.5C 189.767,315.203 193.934,315.536 198,316.5C 198.849,313.479 200.349,312.979 202.5,315C 206.833,315.333 211.167,315.667 215.5,316C 218.763,323.444 222.597,330.611 227,337.5C 227.5,330.174 227.666,322.841 227.5,315.5C 229.547,315.511 231.547,315.844 233.5,316.5C 242.139,315.723 250.805,315.223 259.5,315C 261.025,313.991 262.692,313.491 264.5,313.5C 264.5,314.833 264.5,316.167 264.5,317.5C 262.801,317.34 261.134,317.506 259.5,318C 260.108,319.231 260.441,320.564 260.5,322C 259.973,328.068 259.307,334.068 258.5,340C 259.43,341.194 260.097,342.527 260.5,344C 260.647,348.957 260.314,353.957 259.5,359C 259.844,360.365 260.511,361.532 261.5,362.5C 259.534,365.549 259.034,368.882 260,372.5C 261.329,371.506 262.662,370.506 264,369.5C 265.394,370.613 266.561,371.947 267.5,373.5C 268.287,372.758 268.953,371.925 269.5,371C 267.049,367.757 267.049,364.59 269.5,361.5C 266.872,357.299 266.872,353.133 269.5,349C 266.833,345.667 266.833,342.333 269.5,339C 266.833,335.667 266.833,332.333 269.5,329C 267.029,325.954 267.029,322.954 269.5,320C 268.74,318.559 268.074,317.059 267.5,315.5C 278.48,314.501 289.48,314.168 300.5,314.5C 299.962,328.759 299.629,343.092 299.5,357.5C 299.833,358.167 300.167,358.833 300.5,359.5C 305.13,357.141 309.797,354.141 314.5,350.5C 315.506,349.604 315.506,348.938 314.5,348.5C 313.572,350.335 312.406,350.668 311,349.5C 310.506,347.866 310.34,346.199 310.5,344.5C 312.144,344.286 313.644,344.62 315,345.5C 317.676,341.707 319.176,337.374 319.5,332.5C 321.687,326.722 324.021,321.055 326.5,315.5C 328.311,314.261 330.311,313.594 332.5,313.5C 335.297,314.314 338.13,314.981 341,315.5C 344.82,314.753 348.653,314.087 352.5,313.5C 354.881,313.488 356.548,314.488 357.5,316.5C 359.396,317.466 361.396,317.799 363.5,317.5C 363.672,319.492 363.005,321.158 361.5,322.5C 361.808,323.308 362.308,323.975 363,324.5C 363.173,328.541 363.673,332.541 364.5,336.5C 368.001,340.742 370.667,345.409 372.5,350.5C 373.749,356.632 375.249,362.632 377,368.5C 380.267,373.525 383.434,378.525 386.5,383.5 Z M 350.5,334.5 C 349.022,334.762 347.689,334.429 346.5,333.5C 347.167,333.167 347.833,332.833 348.5,332.5C 349.713,332.747 350.38,333.414 350.5,334.5 Z M 350.5,334.5 C 351.833,334.5 353.167,334.5 354.5,334.5C 354.664,337.187 354.497,339.854 354,342.5C 349.78,341.068 348.614,338.401 350.5,334.5 Z M 337.5,338.5 C 339.76,339.238 339.927,340.238 338,341.5C 337.517,340.552 337.351,339.552 337.5,338.5 Z M 342.5,343.5 C 345.393,352.504 346.559,361.837 346,371.5C 342.108,372.471 339.941,370.804 339.5,366.5C 341.159,358.952 342.159,351.286 342.5,343.5 Z M 211.5,372.5 C 213.12,373.841 214.12,375.674 214.5,378C 213.892,378.87 213.059,379.37 212,379.5C 211.778,377.544 210.945,375.71 209.5,374C 210.416,373.722 211.082,373.222 211.5,372.5 Z M 268.5,379.5 C 270.337,379.639 270.67,380.306 269.5,381.5C 268.702,381.043 268.369,380.376 268.5,379.5 Z"/></g>
<g><path style="opacity:1" fill="#020505" d="M 389.5,314.5 C 400.988,313.505 412.655,313.172 424.5,313.5C 424.828,324.014 424.494,334.347 423.5,344.5C 422.068,334.507 421.735,324.507 422.5,314.5C 411.5,314.5 400.5,314.5 389.5,314.5 Z"/></g>
<g><path style="opacity:1" fill="#0f1616" d="M 472.5,312.5 C 474.117,313.038 475.784,313.371 477.5,313.5C 479.265,314.461 481.265,314.795 483.5,314.5C 480.913,315.816 477.913,316.483 474.5,316.5C 471.5,316.333 468.5,316.167 465.5,316C 466.712,314.893 466.379,314.393 464.5,314.5C 464.47,313.503 464.97,312.836 466,312.5C 467.396,313.394 468.896,314.061 470.5,314.5C 471.713,314.253 472.38,313.586 472.5,312.5 Z"/></g>
<g><path style="opacity:1" fill="#000202" d="M 535.5,315.5 C 546.654,314.505 557.988,314.172 569.5,314.5C 569.833,316.5 570.167,318.5 570.5,320.5C 569.833,320.5 569.167,320.5 568.5,320.5C 567.962,318.883 567.629,317.216 567.5,315.5C 556.833,315.5 546.167,315.5 535.5,315.5 Z"/></g>
<g><path style="opacity:1" fill="#000000" d="M 578.5,315.5 C 590.34,314.175 602.34,314.175 614.5,315.5C 614.376,316.107 614.043,316.44 613.5,316.5C 602.012,315.505 590.345,315.172 578.5,315.5 Z"/></g>
<g><path style="opacity:1" fill="#080e0e" d="M 696.5,316.5 C 692.679,315.814 689.512,316.814 687,319.5C 686.5,319.333 686,319.167 685.5,319C 687.271,318.465 687.604,317.631 686.5,316.5C 680.264,317.009 674.097,317.009 668,316.5C 665.225,316.409 662.725,317.076 660.5,318.5C 661.234,317.292 661.567,315.959 661.5,314.5C 668.076,314.474 674.576,315.141 681,316.5C 683.659,315.032 686.326,314.699 689,315.5C 689.249,314.376 689.749,313.376 690.5,312.5C 692.849,313.543 694.849,314.876 696.5,316.5 Z"/></g>
<g><path style="opacity:1" fill="#294747" d="M 454.5,313.5 C 457.425,314.004 459.925,315.337 462,317.5C 462.995,316.934 463.828,316.267 464.5,315.5C 464.5,315.167 464.5,314.833 464.5,314.5C 466.379,314.393 466.712,314.893 465.5,316C 468.5,316.167 471.5,316.333 474.5,316.5C 477.913,316.483 480.913,315.816 483.5,314.5C 485.677,314.586 487.677,315.253 489.5,316.5C 491.369,314.016 493.036,314.016 494.5,316.5C 491.18,318.494 488.18,320.827 485.5,323.5C 485.631,322.624 485.298,321.957 484.5,321.5C 483.682,323.108 483.015,324.775 482.5,326.5C 483.325,327.386 484.325,327.719 485.5,327.5C 483.28,335.046 484.28,342.046 488.5,348.5C 487.5,348.833 486.833,349.5 486.5,350.5C 484.115,351.867 484.448,353.201 487.5,354.5C 488.852,353.482 489.852,352.149 490.5,350.5C 491.295,352.495 491.961,354.495 492.5,356.5C 492.53,357.497 492.03,358.164 491,358.5C 489.862,358.011 488.695,357.678 487.5,357.5C 487.5,357.167 487.5,356.833 487.5,356.5C 487.5,355.833 487.167,355.5 486.5,355.5C 482.142,353.984 481.642,354.651 485,357.5C 485.497,360.146 485.664,362.813 485.5,365.5C 484.957,365.56 484.624,365.893 484.5,366.5C 486.111,369.22 486.944,372.22 487,375.5C 487.925,374.953 488.758,374.287 489.5,373.5C 489.376,372.893 489.043,372.56 488.5,372.5C 488.5,371.833 488.833,371.5 489.5,371.5C 493.476,370.553 497.476,370.387 501.5,371C 499.548,370.634 497.882,369.801 496.5,368.5C 496.011,367.005 495.345,365.671 494.5,364.5C 494.647,361.557 495.313,358.724 496.5,356C 495.732,353.864 495.066,351.697 494.5,349.5C 497.097,345.637 497.097,341.804 494.5,338C 494.759,336.739 495.426,335.739 496.5,335C 495.552,334.517 494.552,334.351 493.5,334.5C 493.65,338.161 492.15,339.161 489,337.5C 488.79,335.942 488.29,334.609 487.5,333.5C 487.47,332.503 487.97,331.836 489,331.5C 490.333,332.167 491.667,332.833 493,333.5C 493.5,333.167 494,332.833 494.5,332.5C 492.995,331.158 492.328,329.492 492.5,327.5C 493.333,324.066 494.666,320.4 496.5,316.5C 500.24,316.241 503.906,316.574 507.5,317.5C 508.298,317.043 508.631,316.376 508.5,315.5C 508.833,315.5 509.167,315.5 509.5,315.5C 511.148,316.927 513.148,317.76 515.5,318C 513.865,319.748 511.865,320.915 509.5,321.5C 510.167,321.833 510.833,322.167 511.5,322.5C 514.088,321.416 516.255,319.749 518,317.5C 519,318.167 520,318.833 521,319.5C 523.256,318.193 524.09,316.527 523.5,314.5C 523.5,313.833 523.833,313.5 524.5,313.5C 526.229,315.727 528.562,316.727 531.5,316.5C 531.5,317.833 531.5,319.167 531.5,320.5C 530.099,320.971 528.766,321.638 527.5,322.5C 528.325,323.386 529.325,323.719 530.5,323.5C 530.335,326.85 530.502,330.183 531,333.5C 531.71,334.973 532.876,335.64 534.5,335.5C 534.027,336.906 533.027,337.573 531.5,337.5C 531.167,337.5 530.833,337.5 530.5,337.5C 529.642,350.066 529.309,362.733 529.5,375.5C 525.703,376.089 525.703,377.089 529.5,378.5C 527.796,382.052 525.462,385.219 522.5,388C 521.256,388.456 520.423,387.956 520,386.5C 517.409,390.048 513.909,391.382 509.5,390.5C 509.5,391.5 509.5,392.5 509.5,393.5C 507.708,393.634 506.042,393.301 504.5,392.5C 503.924,389.876 502.59,389.209 500.5,390.5C 496.24,391.585 491.906,392.252 487.5,392.5C 486.833,392.5 486.167,392.5 485.5,392.5C 485.5,391.833 485.167,391.5 484.5,391.5C 484.167,391.5 483.833,391.5 483.5,391.5C 482.833,390.167 482.167,390.167 481.5,391.5C 480.448,391.351 479.448,391.517 478.5,392C 482.372,393.766 486.372,395.266 490.5,396.5C 484.237,398.46 479.237,396.626 475.5,391C 472.126,389.773 468.792,389.606 465.5,390.5C 464.833,389.5 464.167,388.5 463.5,387.5C 462.791,386.596 461.791,386.263 460.5,386.5C 460.5,385.833 460.167,385.5 459.5,385.5C 455.638,384.476 452.805,382.143 451,378.5C 451.002,373.476 451.502,368.476 452.5,363.5C 451.5,363.5 450.5,363.5 449.5,363.5C 449.263,362.209 449.596,361.209 450.5,360.5C 452.199,360.66 453.866,360.494 455.5,360C 454.756,358.961 453.756,358.461 452.5,358.5C 452.665,355.15 452.498,351.817 452,348.5C 451.302,345.589 449.802,344.923 447.5,346.5C 452.946,342.572 454.779,337.239 453,330.5C 452.617,331.056 452.117,331.389 451.5,331.5C 450.763,328.448 448.763,326.781 445.5,326.5C 445.5,326.167 445.5,325.833 445.5,325.5C 445.5,325.167 445.5,324.833 445.5,324.5C 447.766,324.141 449.599,324.808 451,326.5C 451.74,325.251 451.573,324.251 450.5,323.5C 451.534,320.014 452.867,316.68 454.5,313.5 Z M 487.5,333.5 C 488.29,334.609 488.79,335.942 489,337.5C 492.15,339.161 493.65,338.161 493.5,334.5C 494.552,334.351 495.552,334.517 496.5,335C 495.426,335.739 494.759,336.739 494.5,338C 497.097,341.804 497.097,345.637 494.5,349.5C 495.066,351.697 495.732,353.864 496.5,356C 495.313,358.724 494.647,361.557 494.5,364.5C 492.321,364.84 490.488,365.84 489,367.5C 488.472,368.816 488.972,369.483 490.5,369.5C 490.167,370.167 489.833,370.833 489.5,371.5C 488.833,371.5 488.5,371.833 488.5,372.5C 487.895,370.026 486.895,367.693 485.5,365.5C 487.04,363.162 487.706,360.495 487.5,357.5C 488.695,357.678 489.862,358.011 491,358.5C 492.03,358.164 492.53,357.497 492.5,356.5C 493.157,351.941 493.49,347.274 493.5,342.5C 491.604,341.534 489.604,341.201 487.5,341.5C 486.629,338.938 486.629,336.272 487.5,333.5 Z M 488.5,348.5 C 488.631,349.239 488.464,349.906 488,350.5C 487.31,351.738 486.81,351.738 486.5,350.5C 486.833,349.5 487.5,348.833 488.5,348.5 Z M 494.5,364.5 C 495.345,365.671 496.011,367.005 496.5,368.5C 495.833,368.5 495.167,368.5 494.5,368.5C 494.5,367.167 494.5,365.833 494.5,364.5 Z"/></g>
<g><path style="opacity:1" fill="#111919" d="M 494.5,312.5 C 494.5,313.167 494.833,313.5 495.5,313.5C 495.737,314.791 495.404,315.791 494.5,316.5C 493.036,314.016 491.369,314.016 489.5,316.5C 487.677,315.253 485.677,314.586 483.5,314.5C 483.47,313.503 483.97,312.836 485,312.5C 488.245,312.676 491.412,312.676 494.5,312.5 Z"/></g>
<g><path style="opacity:1" fill="#070d0d" d="M 508.5,315.5 C 508.631,316.376 508.298,317.043 507.5,317.5C 503.906,316.574 500.24,316.241 496.5,316.5C 497.514,315.235 499.014,314.569 501,314.5C 503.528,314.725 506.028,315.058 508.5,315.5 Z"/></g>
<g><path style="opacity:1" fill="#070d0d" d="M 531.5,316.5 C 528.562,316.727 526.229,315.727 524.5,313.5C 524.735,312.903 525.235,312.57 526,312.5C 528.243,313.512 530.076,314.845 531.5,316.5 Z"/></g>
<g><path style="opacity:1" fill="#0e1616" d="M 659.5,314.5 C 657.742,314.877 656.075,315.544 654.5,316.5C 653.452,315.617 652.285,314.95 651,314.5C 643.279,316.125 635.446,317.125 627.5,317.5C 625.502,315.666 623.168,314.666 620.5,314.5C 620.791,313.351 621.624,312.684 623,312.5C 624.951,313.285 626.785,314.285 628.5,315.5C 629.386,314.675 629.719,313.675 629.5,312.5C 632.004,313.639 634.67,314.306 637.5,314.5C 637.5,313.5 637.5,312.5 637.5,311.5C 640.347,312.012 643.014,313.012 645.5,314.5C 648.385,311.996 651.218,311.996 654,314.5C 655.754,310.615 657.587,310.615 659.5,314.5 Z"/></g>
<g><path style="opacity:1" fill="#284646" d="M 389.5,314.5 C 400.5,314.5 411.5,314.5 422.5,314.5C 421.735,324.507 422.068,334.507 423.5,344.5C 423.5,345.167 423.167,345.5 422.5,345.5C 421.503,345.47 420.836,345.97 420.5,347C 421.809,349.025 423.475,350.525 425.5,351.5C 425.5,352.167 425.167,352.5 424.5,352.5C 423.883,352.389 423.383,352.056 423,351.5C 422.754,354.89 422.254,358.223 421.5,361.5C 422.365,362.583 423.365,362.749 424.5,362C 423.098,360.658 423.431,359.824 425.5,359.5C 428.063,359.737 428.063,360.237 425.5,361C 427.473,361.495 429.473,361.662 431.5,361.5C 431.833,361.5 432.167,361.5 432.5,361.5C 433.806,362.467 434.473,363.801 434.5,365.5C 432.8,365.374 431.3,364.707 430,363.5C 428.594,364.414 427.094,365.08 425.5,365.5C 424.5,365.5 423.5,365.5 422.5,365.5C 423.02,369.653 423.02,373.653 422.5,377.5C 418.862,379.453 415.195,381.453 411.5,383.5C 412.167,383.833 412.833,384.167 413.5,384.5C 416.028,383.254 418.695,382.254 421.5,381.5C 430.141,380.502 438.808,380.169 447.5,380.5C 448.613,381.946 448.78,383.613 448,385.5C 447.667,385.167 447.333,384.833 447,384.5C 445.074,387.325 445.574,389.659 448.5,391.5C 428.674,392.497 408.674,392.83 388.5,392.5C 388.706,389.505 388.04,386.838 386.5,384.5C 386.5,384.167 386.5,383.833 386.5,383.5C 386.263,382.209 386.596,381.209 387.5,380.5C 388.515,384.731 390.848,385.897 394.5,384C 391.975,383.576 389.975,382.41 388.5,380.5C 388.5,377.5 388.5,374.5 388.5,371.5C 388.5,370.5 388.5,369.5 388.5,368.5C 388.5,367.833 388.5,367.167 388.5,366.5C 388.771,364.62 388.104,363.287 386.5,362.5C 386.647,359.557 387.313,356.724 388.5,354C 387.394,350.851 386.061,348.018 384.5,345.5C 384.232,343.901 384.566,342.568 385.5,341.5C 386.801,342.882 387.634,344.548 388,346.5C 388.494,344.866 388.66,343.199 388.5,341.5C 388.096,340.244 387.429,339.077 386.5,338C 387.015,335.496 387.015,332.829 386.5,330C 387.242,324.658 388.242,319.492 389.5,314.5 Z"/></g>
<g><path style="opacity:1" fill="#0d1716" d="M 523.5,314.5 C 524.09,316.527 523.256,318.193 521,319.5C 520,318.833 519,318.167 518,317.5C 516.255,319.749 514.088,321.416 511.5,322.5C 510.833,322.167 510.167,321.833 509.5,321.5C 511.865,320.915 513.865,319.748 515.5,318C 513.148,317.76 511.148,316.927 509.5,315.5C 511.547,315.511 513.547,315.844 515.5,316.5C 518.13,315.622 520.797,314.955 523.5,314.5 Z"/></g>
<g><path style="opacity:1" fill="#294747" d="M 620.5,314.5 C 623.168,314.666 625.502,315.666 627.5,317.5C 635.446,317.125 643.279,316.125 651,314.5C 652.285,314.95 653.452,315.617 654.5,316.5C 656.075,315.544 657.742,314.877 659.5,314.5C 659.719,315.675 659.386,316.675 658.5,317.5C 655.353,319.051 652.687,321.051 650.5,323.5C 649.534,323.513 648.868,324.513 648.5,326.5C 650.086,325.973 651.42,326.639 652.5,328.5C 652.5,328.833 652.5,329.167 652.5,329.5C 651.28,331.284 651.28,332.95 652.5,334.5C 652.768,336.099 652.434,337.432 651.5,338.5C 650.957,338.56 650.624,338.893 650.5,339.5C 651.041,341.535 651.708,343.535 652.5,345.5C 653.842,343.995 655.508,343.328 657.5,343.5C 657.443,344.609 657.11,345.609 656.5,346.5C 654.973,346.427 653.973,347.094 653.5,348.5C 652.5,348.833 651.833,349.5 651.5,350.5C 650.566,351.568 650.232,352.901 650.5,354.5C 651.552,354.649 652.552,354.483 653.5,354C 654.032,351.537 655.366,349.703 657.5,348.5C 657.5,351.833 657.5,355.167 657.5,358.5C 655.784,358.371 654.117,358.038 652.5,357.5C 652.672,356.508 652.338,355.842 651.5,355.5C 650.902,359.161 649.902,362.828 648.5,366.5C 648.977,367.478 649.643,368.311 650.5,369C 648.941,369.98 647.274,370.813 645.5,371.5C 647.502,372.927 649.668,374.26 652,375.5C 652.765,375.43 653.265,375.097 653.5,374.5C 655.048,374.179 655.715,373.179 655.5,371.5C 658.226,371.736 660.559,370.903 662.5,369C 662.272,368.601 661.938,368.435 661.5,368.5C 660.833,366.167 660.167,363.833 659.5,361.5C 661.525,360.481 662.859,358.815 663.5,356.5C 662.849,351.715 662.849,346.882 663.5,342C 663.475,339.071 662.809,336.571 661.5,334.5C 661.167,334.5 660.833,334.5 660.5,334.5C 660.489,332.983 659.823,331.816 658.5,331C 659.563,329.812 660.897,329.312 662.5,329.5C 662.762,328.022 662.429,326.689 661.5,325.5C 660.264,326.246 658.93,326.579 657.5,326.5C 658.026,323.646 659.026,320.979 660.5,318.5C 662.725,317.076 665.225,316.409 668,316.5C 674.097,317.009 680.264,317.009 686.5,316.5C 687.604,317.631 687.271,318.465 685.5,319C 686,319.167 686.5,319.333 687,319.5C 689.512,316.814 692.679,315.814 696.5,316.5C 696.579,318.666 697.246,320.666 698.5,322.5C 698.332,324.171 697.665,325.504 696.5,326.5C 695.365,327.676 695.199,329.676 696,332.5C 696.726,335.285 698.226,335.952 700.5,334.5C 700.106,336.71 698.773,338.043 696.5,338.5C 695.205,346.796 695.205,356.463 696.5,367.5C 698.071,365.585 700.071,364.585 702.5,364.5C 703.434,365.568 703.768,366.901 703.5,368.5C 697.953,369.898 695.12,373.565 695,379.5C 692.618,382.427 690.118,385.261 687.5,388C 686.256,388.456 685.423,387.956 685,386.5C 682.761,389.962 679.594,391.295 675.5,390.5C 673.62,390.229 672.287,390.896 671.5,392.5C 671.167,392.5 670.833,392.5 670.5,392.5C 669.21,391.942 668.377,390.942 668,389.5C 667.329,390.252 666.496,390.586 665.5,390.5C 661.24,391.585 656.906,392.252 652.5,392.5C 651.833,392.5 651.167,392.5 650.5,392.5C 650.5,391.833 650.167,391.5 649.5,391.5C 649.167,391.5 648.833,391.5 648.5,391.5C 647.833,390.167 647.167,390.167 646.5,391.5C 645.448,391.351 644.448,391.517 643.5,392C 647.372,393.766 651.372,395.266 655.5,396.5C 649.836,397.648 644.836,395.981 640.5,391.5C 637.157,389.624 633.824,389.457 630.5,391C 629.05,394.611 626.717,397.445 623.5,399.5C 622.614,398.675 622.281,397.675 622.5,396.5C 625.081,393.665 627.748,390.831 630.5,388C 629.906,387.536 629.239,387.369 628.5,387.5C 627.791,386.596 626.791,386.263 625.5,386.5C 625.158,385.662 624.492,385.328 623.5,385.5C 619.2,382.556 616.7,378.556 616,373.5C 616.383,372.944 616.883,372.611 617.5,372.5C 619.006,368.405 620.006,364.071 620.5,359.5C 620.043,358.702 619.376,358.369 618.5,358.5C 618.611,356.352 617.944,356.019 616.5,357.5C 615.604,360.144 614.771,362.81 614,365.5C 612,364.833 610.667,363.5 610,361.5C 607.298,363.043 606.132,365.376 606.5,368.5C 607.08,370.749 608.413,372.415 610.5,373.5C 610.5,373.833 610.5,374.167 610.5,374.5C 609.624,374.369 608.957,374.702 608.5,375.5C 610.448,380.676 612.781,385.676 615.5,390.5C 607.169,391.18 598.502,391.513 589.5,391.5C 591.836,390.143 594.17,388.81 596.5,387.5C 596.5,384.5 596.5,381.5 596.5,378.5C 598.995,379.199 601.328,380.199 603.5,381.5C 604.052,379.669 604.052,378.003 603.5,376.5C 601.378,377.427 599.045,377.427 596.5,376.5C 596.5,375.5 596.5,374.5 596.5,373.5C 595.5,373.5 594.5,373.5 593.5,373.5C 593.5,372.167 593.5,370.833 593.5,369.5C 592.167,369.5 590.833,369.5 589.5,369.5C 589.643,371.262 589.309,372.929 588.5,374.5C 589.922,375.547 591.422,375.547 593,374.5C 594.713,375.137 594.879,376.137 593.5,377.5C 594.025,378.192 594.692,378.692 595.5,379C 594.192,381.355 593.192,383.855 592.5,386.5C 590.591,387.348 588.591,387.682 586.5,387.5C 586.527,389.199 587.194,390.533 588.5,391.5C 586.143,391.663 583.81,391.497 581.5,391C 580.08,389.508 578.746,388.008 577.5,386.5C 578.686,385.039 578.686,383.705 577.5,382.5C 575.46,378.076 574.294,373.409 574,368.5C 573.257,365.808 572.09,363.475 570.5,361.5C 570.85,358.144 570.017,355.144 568,352.5C 567.965,356.389 568.465,360.223 569.5,364C 566.348,366.091 564.015,365.258 562.5,361.5C 559.942,363.717 556.942,364.883 553.5,365C 556.38,365.684 559.213,365.517 562,364.5C 563.584,364.988 564.751,365.988 565.5,367.5C 566.736,366.754 568.07,366.421 569.5,366.5C 569.216,368.415 569.549,370.081 570.5,371.5C 570.573,373.027 569.906,374.027 568.5,374.5C 568.44,373.957 568.107,373.624 567.5,373.5C 566.167,378.833 566.167,384.167 567.5,389.5C 568.417,390.127 569.417,390.461 570.5,390.5C 559.012,391.495 547.345,391.828 535.5,391.5C 535.846,384.958 535.179,378.624 533.5,372.5C 536.718,372.651 537.051,373.484 534.5,375C 536.586,375.557 537.919,374.724 538.5,372.5C 535.567,366.813 536.567,361.48 541.5,356.5C 539.447,355.473 537.447,354.473 535.5,353.5C 534.941,351.321 534.274,349.154 533.5,347C 535.256,343.384 535.923,339.551 535.5,335.5C 535.5,334.833 535.5,334.167 535.5,333.5C 535.976,329.622 534.976,326.288 532.5,323.5C 532.833,322.833 533.167,322.167 533.5,321.5C 534.738,319.786 535.405,317.786 535.5,315.5C 546.167,315.5 556.833,315.5 567.5,315.5C 567.629,317.216 567.962,318.883 568.5,320.5C 568.818,330.083 568.485,339.583 567.5,349C 568.715,351.096 569.549,350.929 570,348.5C 570.212,345.748 571.045,343.248 572.5,341C 572.43,340.235 572.097,339.735 571.5,339.5C 571.5,338.833 571.167,338.5 570.5,338.5C 572.46,336.79 574.627,336.457 577,337.5C 577.333,335.953 576.833,334.62 575.5,333.5C 576.778,329.781 577.778,326.114 578.5,322.5C 581.125,323.458 581.125,324.624 578.5,326C 580.816,328.152 581.15,330.652 579.5,333.5C 581.495,334.89 582.828,334.39 583.5,332C 582.264,330.144 582.264,328.311 583.5,326.5C 581.364,325.148 581.03,323.482 582.5,321.5C 582.062,320.494 581.396,320.494 580.5,321.5C 579.548,319.955 579.215,318.288 579.5,316.5C 590.172,316.333 600.839,316.5 611.5,317C 610.712,320.076 610.212,323.242 610,326.5C 608.615,327.551 607.615,328.884 607,330.5C 606.025,333.76 604.858,336.927 603.5,340C 603.728,340.399 604.062,340.565 604.5,340.5C 603.122,343.354 601.455,346.02 599.5,348.5C 598.34,349.611 597.007,350.611 595.5,351.5C 596.582,351.749 597.915,351.915 599.5,352C 600.167,353 600.833,354 601.5,355C 593.652,355.403 593.652,356.403 601.5,358C 602.693,362.381 604.027,362.548 605.5,358.5C 605.457,357.584 605.124,356.917 604.5,356.5C 604.167,356.5 603.833,356.5 603.5,356.5C 604.99,354.72 606.99,354.054 609.5,354.5C 609.312,356.103 609.812,357.437 611,358.5C 613.016,357.045 613.849,355.045 613.5,352.5C 616.325,352.162 618.492,353.162 620,355.5C 620.692,354.975 621.192,354.308 621.5,353.5C 619.712,352.717 618.712,351.384 618.5,349.5C 618.047,347.435 617.047,345.768 615.5,344.5C 615.5,343.5 615.5,342.5 615.5,341.5C 617.741,340.7 618.741,339.034 618.5,336.5C 618.595,333.303 617.928,330.303 616.5,327.5C 617.885,324.341 618.885,321.008 619.5,317.5C 620.552,317.649 621.552,317.483 622.5,317C 621.619,316.292 620.953,315.458 620.5,314.5 Z M 660.5,334.5 C 660.833,334.5 661.167,334.5 661.5,334.5C 660.609,335.261 659.942,336.261 659.5,337.5C 662.167,341.5 662.167,345.5 659.5,349.5C 662.155,353.526 662.155,357.526 659.5,361.5C 660.167,363.833 660.833,366.167 661.5,368.5C 660.833,368.5 660.167,368.5 659.5,368.5C 659.5,367.833 659.5,367.167 659.5,366.5C 659.631,365.624 659.298,364.957 658.5,364.5C 656.739,365.035 655.406,366.035 654.5,367.5C 654.328,368.492 654.662,369.158 655.5,369.5C 655.144,371.19 654.144,372.19 652.5,372.5C 652.917,369.921 652.25,367.754 650.5,366C 651.991,363.379 652.658,360.545 652.5,357.5C 654.117,358.038 655.784,358.371 657.5,358.5C 657.5,355.167 657.5,351.833 657.5,348.5C 657.672,347.508 657.338,346.842 656.5,346.5C 657.11,345.609 657.443,344.609 657.5,343.5C 655.309,342.14 653.309,340.474 651.5,338.5C 652.434,337.432 652.768,336.099 652.5,334.5C 652.81,333.262 653.31,333.262 654,334.5C 654.49,335.793 654.657,337.127 654.5,338.5C 655.5,338.5 656.5,338.5 657.5,338.5C 657.088,336.027 658.088,334.694 660.5,334.5 Z M 615.5,344.5 C 617.047,345.768 618.047,347.435 618.5,349.5C 616.621,350.341 614.621,350.675 612.5,350.5C 612.819,352.75 612.319,354.75 611,356.5C 610.51,355.207 610.343,353.873 610.5,352.5C 609.5,352.5 608.5,352.5 607.5,352.5C 609.167,350.5 610.833,348.5 612.5,346.5C 614.027,346.573 615.027,345.906 615.5,344.5 Z M 653.5,348.5 C 653.631,349.239 653.464,349.906 653,350.5C 652.31,351.738 651.81,351.738 651.5,350.5C 651.833,349.5 652.5,348.833 653.5,348.5 Z M 564.5,352.5 C 563.833,352.5 563.167,352.5 562.5,352.5C 564.81,348.764 565.477,348.764 564.5,352.5 Z M 570.5,361.5 C 572.09,363.475 573.257,365.808 574,368.5C 574.294,373.409 575.46,378.076 577.5,382.5C 574.096,381.036 571.762,382.036 570.5,385.5C 569.883,385.611 569.383,385.944 569,386.5C 568.501,382.514 568.334,378.514 568.5,374.5C 569.906,374.027 570.573,373.027 570.5,371.5C 570.5,368.167 570.5,364.833 570.5,361.5 Z M 625.5,386.5 C 626.791,386.263 627.791,386.596 628.5,387.5C 627.504,387.414 626.671,387.748 626,388.5C 625.536,387.906 625.369,387.239 625.5,386.5 Z"/></g>
<g><path style="opacity:1" fill="#1f3838" d="M 578.5,315.5 C 590.345,315.172 602.012,315.505 613.5,316.5C 612.839,319.787 612.339,323.12 612,326.5C 611,327.5 610,328.5 609,329.5C 607.572,333.307 606.072,336.974 604.5,340.5C 604.062,340.565 603.728,340.399 603.5,340C 604.858,336.927 606.025,333.76 607,330.5C 607.615,328.884 608.615,327.551 610,326.5C 610.212,323.242 610.712,320.076 611.5,317C 600.839,316.5 590.172,316.333 579.5,316.5C 579.215,318.288 579.548,319.955 580.5,321.5C 581.396,320.494 582.062,320.494 582.5,321.5C 581.03,323.482 581.364,325.148 583.5,326.5C 582.264,328.311 582.264,330.144 583.5,332C 582.828,334.39 581.495,334.89 579.5,333.5C 581.15,330.652 580.816,328.152 578.5,326C 581.125,324.624 581.125,323.458 578.5,322.5C 578.5,321.167 578.5,319.833 578.5,318.5C 578.5,317.5 578.5,316.5 578.5,315.5 Z"/></g>
<g><path style="opacity:1" fill="#131f1f" d="M 620.5,314.5 C 620.953,315.458 621.619,316.292 622.5,317C 621.552,317.483 620.552,317.649 619.5,317.5C 618.885,321.008 617.885,324.341 616.5,327.5C 615.402,326.399 615.235,325.066 616,323.5C 617.312,320.223 618.812,317.223 620.5,314.5 Z"/></g>
<g><path style="opacity:1" fill="#000000" d="M 109.5,319.5 C 111.59,319.45 112.923,320.45 113.5,322.5C 112.311,323.429 110.978,323.762 109.5,323.5C 109.5,322.167 109.5,320.833 109.5,319.5 Z"/></g>
<g><path style="opacity:1" fill="#000000" d="M 310.5,319.5 C 312.59,319.45 313.923,320.45 314.5,322.5C 313.311,323.429 311.978,323.762 310.5,323.5C 310.5,322.167 310.5,320.833 310.5,319.5 Z"/></g>
<g><path style="opacity:1" fill="#040a0a" d="M 445.5,324.5 C 446.919,323.549 448.585,323.216 450.5,323.5C 451.573,324.251 451.74,325.251 451,326.5C 449.599,324.808 447.766,324.141 445.5,324.5 Z"/></g>
<g><path style="opacity:1" fill="#162929" d="M 578.5,318.5 C 578.5,319.833 578.5,321.167 578.5,322.5C 577.778,326.114 576.778,329.781 575.5,333.5C 576.833,334.62 577.333,335.953 577,337.5C 574.627,336.457 572.46,336.79 570.5,338.5C 570.461,340.224 570.794,340.557 571.5,339.5C 572.097,339.735 572.43,340.235 572.5,341C 571.045,343.248 570.212,345.748 570,348.5C 569.549,350.929 568.715,351.096 567.5,349C 568.485,339.583 568.818,330.083 568.5,320.5C 569.167,320.5 569.833,320.5 570.5,320.5C 570.173,325.544 570.506,330.544 571.5,335.5C 572.478,335.023 573.311,334.357 574,333.5C 575.576,328.386 577.076,323.386 578.5,318.5 Z"/></g>
<g><path style="opacity:1" fill="#101b1b" d="M 531.5,320.5 C 532.492,320.328 533.158,320.662 533.5,321.5C 533.167,322.167 532.833,322.833 532.5,323.5C 531.61,325.782 531.444,328.115 532,330.5C 532.422,332.426 533.589,333.426 535.5,333.5C 535.5,334.167 535.5,334.833 535.5,335.5C 535.167,335.5 534.833,335.5 534.5,335.5C 532.876,335.64 531.71,334.973 531,333.5C 530.502,330.183 530.335,326.85 530.5,323.5C 529.325,323.719 528.325,323.386 527.5,322.5C 528.766,321.638 530.099,320.971 531.5,320.5 Z"/></g>
<g><path style="opacity:1" fill="#162424" d="M 696.5,326.5 C 695.775,330.366 697.108,333.033 700.5,334.5C 698.226,335.952 696.726,335.285 696,332.5C 695.199,329.676 695.365,327.676 696.5,326.5 Z"/></g>
<g><path style="opacity:1" fill="#050d0d" d="M 445.5,325.5 C 445.5,325.833 445.5,326.167 445.5,326.5C 445.737,327.791 445.404,328.791 444.5,329.5C 444.631,328.624 444.298,327.957 443.5,327.5C 442.583,328.127 441.583,328.461 440.5,328.5C 441.401,326.273 443.067,325.273 445.5,325.5 Z"/></g>
<g><path style="opacity:1" fill="#203939" d="M 444.5,329.5 C 443.249,331.561 441.582,331.894 439.5,330.5C 439.863,329.817 440.196,329.15 440.5,328.5C 441.583,328.461 442.583,328.127 443.5,327.5C 444.298,327.957 444.631,328.624 444.5,329.5 Z"/></g>
<g><path style="opacity:1" fill="#213939" d="M 690.5,324.5 C 692.176,325.183 692.843,326.517 692.5,328.5C 689.565,329.114 686.732,330.114 684,331.5C 674.385,339.717 673.552,339.05 681.5,329.5C 684.714,328.063 687.714,326.397 690.5,324.5 Z"/></g>
<g><path style="opacity:1" fill="#182828" d="M 650.5,323.5 C 651.635,325.088 652.969,325.421 654.5,324.5C 655.333,325.5 656.167,326.5 657,327.5C 657.399,327.272 657.565,326.938 657.5,326.5C 658.93,326.579 660.264,326.246 661.5,325.5C 662.429,326.689 662.762,328.022 662.5,329.5C 660.897,329.312 659.563,329.812 658.5,331C 659.823,331.816 660.489,332.983 660.5,334.5C 658.088,334.694 657.088,336.027 657.5,338.5C 656.5,338.5 655.5,338.5 654.5,338.5C 654.657,337.127 654.49,335.793 654,334.5C 653.31,333.262 652.81,333.262 652.5,334.5C 651.28,332.95 651.28,331.284 652.5,329.5C 655.167,329.167 655.167,328.833 652.5,328.5C 651.42,326.639 650.086,325.973 648.5,326.5C 648.868,324.513 649.534,323.513 650.5,323.5 Z"/></g>
<g><path style="opacity:1" fill="#020606" d="M 378.5,336.5 C 377.694,335.272 376.694,334.272 375.5,333.5C 376.568,332.566 377.901,332.232 379.5,332.5C 379.768,334.099 379.434,335.432 378.5,336.5 Z"/></g>
<g><path style="opacity:1" fill="#050d0d" d="M 563.5,332.5 C 564.452,333.452 565.452,334.452 566.5,335.5C 564.117,336.462 563.117,335.462 563.5,332.5 Z"/></g>
<g><path style="opacity:1" fill="#223f3f" d="M 375.5,333.5 C 376.694,334.272 377.694,335.272 378.5,336.5C 379.434,335.432 379.768,334.099 379.5,332.5C 377.901,332.232 376.568,332.566 375.5,333.5 Z"/></g>
<g><path style="opacity:1" fill="#111d1d" d="M 530.5,337.5 C 530.833,337.5 531.167,337.5 531.5,337.5C 531.334,346.839 531.5,356.173 532,365.5C 532.816,364.177 533.983,363.511 535.5,363.5C 534.521,365.145 533.188,366.479 531.5,367.5C 530.501,357.522 530.168,347.522 530.5,337.5 Z"/></g>
<g><path style="opacity:1" fill="#182929" d="M 661.5,334.5 C 662.809,336.571 663.475,339.071 663.5,342C 662.849,346.882 662.849,351.715 663.5,356.5C 662.859,358.815 661.525,360.481 659.5,361.5C 662.155,357.526 662.155,353.526 659.5,349.5C 662.167,345.5 662.167,341.5 659.5,337.5C 659.942,336.261 660.609,335.261 661.5,334.5 Z"/></g>
<g><path style="opacity:1" fill="#152323" d="M 696.5,338.5 C 696.169,347.192 696.502,355.859 697.5,364.5C 698.548,363.617 699.715,362.95 701,362.5C 702.03,362.836 702.53,363.503 702.5,364.5C 700.071,364.585 698.071,365.585 696.5,367.5C 695.205,356.463 695.205,346.796 696.5,338.5 Z"/></g>
<g><path style="opacity:1" fill="#0b1111" d="M 618.5,336.5 C 618.741,339.034 617.741,340.7 615.5,341.5C 616.11,339.566 617.11,337.899 618.5,336.5 Z"/></g>
<g><path style="opacity:1" fill="#020707" d="M 388.5,341.5 C 388.66,343.199 388.494,344.866 388,346.5C 387.634,344.548 386.801,342.882 385.5,341.5C 386.348,340.375 387.348,340.375 388.5,341.5 Z"/></g>
<g><path style="opacity:1" fill="#000000" d="M 182.5,343.5 C 183.833,343.5 185.167,343.5 186.5,343.5C 186.5,344.5 186.5,345.5 186.5,346.5C 185.167,346.5 183.833,346.5 182.5,346.5C 182.5,345.5 182.5,344.5 182.5,343.5 Z"/></g>
<g><path style="opacity:1" fill="#111c1c" d="M 447.5,346.5 C 444.447,346.572 441.781,347.572 439.5,349.5C 442.592,346.069 446.092,343.069 450,340.5C 452.292,337.696 452.792,334.696 451.5,331.5C 452.117,331.389 452.617,331.056 453,330.5C 454.779,337.239 452.946,342.572 447.5,346.5 Z"/></g>
<g><path style="opacity:1" fill="#0e1717" d="M 615.5,341.5 C 615.5,342.5 615.5,343.5 615.5,344.5C 615.027,345.906 614.027,346.573 612.5,346.5C 609.737,346.744 607.571,348.077 606,350.5C 605.472,351.816 605.972,352.483 607.5,352.5C 608.5,352.5 609.5,352.5 610.5,352.5C 610.343,353.873 610.51,355.207 611,356.5C 612.319,354.75 612.819,352.75 612.5,350.5C 614.621,350.675 616.621,350.341 618.5,349.5C 618.712,351.384 619.712,352.717 621.5,353.5C 621.192,354.308 620.692,354.975 620,355.5C 618.492,353.162 616.325,352.162 613.5,352.5C 613.849,355.045 613.016,357.045 611,358.5C 609.812,357.437 609.312,356.103 609.5,354.5C 606.99,354.054 604.99,354.72 603.5,356.5C 603.833,357.833 604.167,357.833 604.5,356.5C 605.124,356.917 605.457,357.584 605.5,358.5C 604.027,362.548 602.693,362.381 601.5,358C 593.652,356.403 593.652,355.403 601.5,355C 600.833,354 600.167,353 599.5,352C 597.915,351.915 596.582,351.749 595.5,351.5C 597.007,350.611 598.34,349.611 599.5,348.5C 599.908,349.643 600.575,350.643 601.5,351.5C 605.333,347 610,343.667 615.5,341.5 Z"/></g>
<g><path style="opacity:1" fill="#101a1a" d="M 651.5,338.5 C 653.309,340.474 655.309,342.14 657.5,343.5C 655.508,343.328 653.842,343.995 652.5,345.5C 651.708,343.535 651.041,341.535 650.5,339.5C 650.624,338.893 650.957,338.56 651.5,338.5 Z"/></g>
<g><path style="opacity:1" fill="#030606" d="M 384.5,345.5 C 385.625,346.652 385.625,347.652 384.5,348.5C 383.1,347.9 382.1,346.9 381.5,345.5C 382.348,344.375 383.348,344.375 384.5,345.5 Z"/></g>
<g><path style="opacity:1" fill="#030707" d="M 422.5,345.5 C 423.962,346.801 425.296,348.301 426.5,350C 426.43,350.765 426.097,351.265 425.5,351.5C 423.475,350.525 421.809,349.025 420.5,347C 420.836,345.97 421.503,345.47 422.5,345.5 Z"/></g>
<g><path style="opacity:1" fill="#264646" d="M 381.5,345.5 C 382.1,346.9 383.1,347.9 384.5,348.5C 383.167,348.5 381.833,348.5 380.5,348.5C 380.263,347.209 380.596,346.209 381.5,345.5 Z"/></g>
<g><path style="opacity:1" fill="#020606" d="M 428.5,346.5 C 430.179,346.285 431.179,346.952 431.5,348.5C 429.821,348.715 428.821,348.048 428.5,346.5 Z"/></g>
<g><path style="opacity:1" fill="#264040" d="M 447.5,346.5 C 445.037,350.3 441.704,352.967 437.5,354.5C 438.23,353.288 439.23,352.288 440.5,351.5C 440.376,350.893 440.043,350.56 439.5,350.5C 439.5,350.167 439.5,349.833 439.5,349.5C 441.781,347.572 444.447,346.572 447.5,346.5 Z"/></g>
<g><path style="opacity:1" fill="#111a1a" d="M 656.5,346.5 C 657.338,346.842 657.672,347.508 657.5,348.5C 655.366,349.703 654.032,351.537 653.5,354C 652.552,354.483 651.552,354.649 650.5,354.5C 650.232,352.901 650.566,351.568 651.5,350.5C 651.81,351.738 652.31,351.738 653,350.5C 653.464,349.906 653.631,349.239 653.5,348.5C 653.973,347.094 654.973,346.427 656.5,346.5 Z"/></g>
<g><path style="opacity:1" fill="#264848" d="M 428.5,346.5 C 428.821,348.048 429.821,348.715 431.5,348.5C 430.713,350.104 429.38,350.771 427.5,350.5C 427.232,348.901 427.566,347.568 428.5,346.5 Z"/></g>
<g><path style="opacity:1" fill="#000000" d="M 103.5,348.5 C 108.561,349.484 108.394,350.818 103,352.5C 101.413,351.154 101.58,349.821 103.5,348.5 Z"/></g>
<g><path style="opacity:1" fill="#000000" d="M 303.5,348.5 C 308.557,349.145 308.557,350.478 303.5,352.5C 302.374,351.192 302.374,349.858 303.5,348.5 Z"/></g>
<g><path style="opacity:1" fill="#244141" d="M 612.5,346.5 C 610.833,348.5 609.167,350.5 607.5,352.5C 605.972,352.483 605.472,351.816 606,350.5C 607.571,348.077 609.737,346.744 612.5,346.5 Z"/></g>
<g><path style="opacity:1" fill="#152222" d="M 485.5,323.5 C 486.172,324.267 487.005,324.934 488,325.5C 489.011,324.663 490.178,324.33 491.5,324.5C 491.263,325.791 491.596,326.791 492.5,327.5C 492.328,329.492 492.995,331.158 494.5,332.5C 494,332.833 493.5,333.167 493,333.5C 491.667,332.833 490.333,332.167 489,331.5C 487.97,331.836 487.47,332.503 487.5,333.5C 486.629,336.272 486.629,338.938 487.5,341.5C 489.604,341.201 491.604,341.534 493.5,342.5C 493.49,347.274 493.157,351.941 492.5,356.5C 491.961,354.495 491.295,352.495 490.5,350.5C 489.852,352.149 488.852,353.482 487.5,354.5C 484.448,353.201 484.115,351.867 486.5,350.5C 486.81,351.738 487.31,351.738 488,350.5C 488.464,349.906 488.631,349.239 488.5,348.5C 484.28,342.046 483.28,335.046 485.5,327.5C 484.325,327.719 483.325,327.386 482.5,326.5C 483.015,324.775 483.682,323.108 484.5,321.5C 485.298,321.957 485.631,322.624 485.5,323.5 Z"/></g>
<g><path style="opacity:1" fill="#070e0e" d="M 424.5,352.5 C 424.373,355.245 425.54,357.245 428,358.5C 428.278,357.584 428.778,356.918 429.5,356.5C 429.5,357.833 430.167,358.5 431.5,358.5C 431.5,359.5 431.5,360.5 431.5,361.5C 429.473,361.662 427.473,361.495 425.5,361C 428.063,360.237 428.063,359.737 425.5,359.5C 423.431,359.824 423.098,360.658 424.5,362C 423.365,362.749 422.365,362.583 421.5,361.5C 422.254,358.223 422.754,354.89 423,351.5C 423.383,352.056 423.883,352.389 424.5,352.5 Z"/></g>
<g><path style="opacity:1" fill="#050a0a" d="M 439.5,350.5 C 440.043,350.56 440.376,350.893 440.5,351.5C 439.23,352.288 438.23,353.288 437.5,354.5C 437.068,355.71 436.401,356.71 435.5,357.5C 435.631,356.624 435.298,355.957 434.5,355.5C 432.929,356.309 431.262,356.643 429.5,356.5C 432.503,354.209 435.836,352.209 439.5,350.5 Z"/></g>
<g><path style="opacity:1" fill="#020606" d="M 562.5,352.5 C 563.167,352.5 563.833,352.5 564.5,352.5C 565.853,353.867 565.519,354.867 563.5,355.5C 562.713,354.758 562.047,353.925 561.5,353C 561.728,352.601 562.062,352.435 562.5,352.5 Z"/></g>
<g><path style="opacity:1" fill="#0a1212" d="M 404.5,354.5 C 405.574,353.115 406.907,351.949 408.5,351C 409.167,350.333 409.833,350.333 410.5,351C 409.084,353.265 407.084,354.431 404.5,354.5 Z"/></g>
<g><path style="opacity:1" fill="#0f1818" d="M 404.5,354.5 C 402.22,356.223 399.553,356.889 396.5,356.5C 396.227,358.451 396.893,359.951 398.5,361C 397.552,361.483 396.552,361.649 395.5,361.5C 395.739,359.533 395.406,357.699 394.5,356C 397.854,355.545 401.187,355.045 404.5,354.5 Z"/></g>
<g><path style="opacity:1" fill="#234141" d="M 435.5,357.5 C 434.207,357.875 432.874,358.208 431.5,358.5C 430.167,358.5 429.5,357.833 429.5,356.5C 431.262,356.643 432.929,356.309 434.5,355.5C 435.298,355.957 435.631,356.624 435.5,357.5 Z"/></g>
<g><path style="opacity:1" fill="#0b1414" d="M 486.5,355.5 C 487.167,355.5 487.5,355.833 487.5,356.5C 487.5,356.833 487.5,357.167 487.5,357.5C 487.706,360.495 487.04,363.162 485.5,365.5C 485.664,362.813 485.497,360.146 485,357.5C 481.642,354.651 482.142,353.984 486.5,355.5 Z"/></g>
<g><path style="opacity:1" fill="#010303" d="M 452.5,358.5 C 453.756,358.461 454.756,358.961 455.5,360C 453.866,360.494 452.199,360.66 450.5,360.5C 450.833,359.5 451.5,358.833 452.5,358.5 Z"/></g>
<g><path style="opacity:1" fill="#0c1414" d="M 434.5,365.5 C 434.473,363.801 433.806,362.467 432.5,361.5C 433.209,360.596 434.209,360.263 435.5,360.5C 435.784,362.415 435.451,364.081 434.5,365.5 Z"/></g>
<g><path style="opacity:1" fill="#182a2a" d="M 618.5,358.5 C 619.376,358.369 620.043,358.702 620.5,359.5C 620.006,364.071 619.006,368.405 617.5,372.5C 618.229,367.87 618.563,363.203 618.5,358.5 Z"/></g>
<g><path style="opacity:1" fill="#0b1313" d="M 589.5,357.5 C 590.946,356.387 592.613,356.22 594.5,357C 592.519,357.605 592.185,358.605 593.5,360C 587.432,359.669 582.266,361.835 578,366.5C 578.195,364.255 579.362,362.422 581.5,361C 584.757,359.526 587.424,358.359 589.5,357.5 Z"/></g>
<g><path style="opacity:1" fill="#000000" d="M 386.5,362.5 C 388.104,363.287 388.771,364.62 388.5,366.5C 386.067,367.548 386.067,368.214 388.5,368.5C 388.5,369.5 388.5,370.5 388.5,371.5C 385.165,371.347 382.498,370.014 380.5,367.5C 381.689,366.571 383.022,366.238 384.5,366.5C 384.157,364.517 384.824,363.183 386.5,362.5 Z"/></g>
<g><path style="opacity:1" fill="#162323" d="M 444.5,366.5 C 443.01,364.72 441.01,364.054 438.5,364.5C 441.161,362.512 444.161,361.179 447.5,360.5C 447.975,363.313 446.975,365.313 444.5,366.5 Z"/></g>
<g><path style="opacity:1" fill="#1e3333" d="M 651.5,355.5 C 651.328,356.492 651.662,357.158 652.5,357.5C 652.658,360.545 651.991,363.379 650.5,366C 652.25,367.754 652.917,369.921 652.5,372.5C 652.328,373.492 652.662,374.158 653.5,374.5C 653.265,375.097 652.765,375.43 652,375.5C 649.668,374.26 647.502,372.927 645.5,371.5C 647.274,370.813 648.941,369.98 650.5,369C 649.643,368.311 648.977,367.478 648.5,366.5C 649.902,362.828 650.902,359.161 651.5,355.5 Z"/></g>
<g><path style="opacity:1" fill="#000000" d="M 262.5,364.5 C 263.833,364.5 265.167,364.5 266.5,364.5C 265.759,369.503 264.426,369.503 262.5,364.5 Z"/></g>
<g><path style="opacity:1" fill="#2a4444" d="M 438.5,364.5 C 441.01,364.054 443.01,364.72 444.5,366.5C 442.307,367.797 439.973,367.797 437.5,366.5C 437.863,365.817 438.196,365.15 438.5,364.5 Z"/></g>
<g><path style="opacity:1" fill="#040a0a" d="M 659.5,366.5 C 657.883,367.038 656.216,367.371 654.5,367.5C 655.406,366.035 656.739,365.035 658.5,364.5C 659.298,364.957 659.631,365.624 659.5,366.5 Z"/></g>
<g><path style="opacity:1" fill="#0f1b1b" d="M 570.5,361.5 C 570.5,364.833 570.5,368.167 570.5,371.5C 569.549,370.081 569.216,368.415 569.5,366.5C 568.07,366.421 566.736,366.754 565.5,367.5C 564.751,365.988 563.584,364.988 562,364.5C 559.213,365.517 556.38,365.684 553.5,365C 556.942,364.883 559.942,363.717 562.5,361.5C 564.015,365.258 566.348,366.091 569.5,364C 568.465,360.223 567.965,356.389 568,352.5C 570.017,355.144 570.85,358.144 570.5,361.5 Z"/></g>
<g><path style="opacity:1" fill="#1e3333" d="M 494.5,364.5 C 494.5,365.833 494.5,367.167 494.5,368.5C 493.508,368.328 492.842,368.662 492.5,369.5C 491.833,369.5 491.167,369.5 490.5,369.5C 488.972,369.483 488.472,368.816 489,367.5C 490.488,365.84 492.321,364.84 494.5,364.5 Z"/></g>
<g><path style="opacity:1" fill="#254e4e" d="M 659.5,366.5 C 659.5,367.167 659.5,367.833 659.5,368.5C 658.833,368.5 658.5,368.833 658.5,369.5C 657.5,369.5 656.5,369.5 655.5,369.5C 654.662,369.158 654.328,368.492 654.5,367.5C 656.216,367.371 657.883,367.038 659.5,366.5 Z"/></g>
<g><path style="opacity:1" fill="#000000" d="M 100.5,369.5 C 101.919,368.549 103.585,368.216 105.5,368.5C 105.5,369.5 105.5,370.5 105.5,371.5C 103.486,371.608 101.82,370.942 100.5,369.5 Z"/></g>
<g><path style="opacity:1" fill="#060f0f" d="M 485.5,365.5 C 486.895,367.693 487.895,370.026 488.5,372.5C 489.043,372.56 489.376,372.893 489.5,373.5C 488.758,374.287 487.925,374.953 487,375.5C 486.944,372.22 486.111,369.22 484.5,366.5C 484.624,365.893 484.957,365.56 485.5,365.5 Z"/></g>
<g><path style="opacity:1" fill="#050b0b" d="M 659.5,368.5 C 660.167,368.5 660.833,368.5 661.5,368.5C 661.938,368.435 662.272,368.601 662.5,369C 660.559,370.903 658.226,371.736 655.5,371.5C 655.715,373.179 655.048,374.179 653.5,374.5C 652.662,374.158 652.328,373.492 652.5,372.5C 654.144,372.19 655.144,371.19 655.5,369.5C 656.5,369.5 657.5,369.5 658.5,369.5C 659.167,369.5 659.5,369.167 659.5,368.5 Z"/></g>
<g><path style="opacity:1" fill="#050c0c" d="M 494.5,368.5 C 495.167,368.5 495.833,368.5 496.5,368.5C 497.882,369.801 499.548,370.634 501.5,371C 497.476,370.387 493.476,370.553 489.5,371.5C 489.833,370.833 490.167,370.167 490.5,369.5C 491.167,369.5 491.833,369.5 492.5,369.5C 493.492,369.672 494.158,369.338 494.5,368.5 Z"/></g>
<g><path style="opacity:1" fill="#0e1818" d="M 556.5,367.5 C 559.998,367.565 560.498,368.899 558,371.5C 556.812,370.437 556.312,369.103 556.5,367.5 Z"/></g>
<g><path style="opacity:1" fill="#1e3434" d="M 530.5,337.5 C 530.168,347.522 530.501,357.522 531.5,367.5C 533.188,366.479 534.521,365.145 535.5,363.5C 535.5,360.167 535.5,356.833 535.5,353.5C 537.447,354.473 539.447,355.473 541.5,356.5C 536.567,361.48 535.567,366.813 538.5,372.5C 537.919,374.724 536.586,375.557 534.5,375C 537.051,373.484 536.718,372.651 533.5,372.5C 533.5,372.167 533.5,371.833 533.5,371.5C 531.794,373.612 530.461,375.945 529.5,378.5C 525.703,377.089 525.703,376.089 529.5,375.5C 529.309,362.733 529.642,350.066 530.5,337.5 Z M 533.5,371.5 C 533.517,369.972 534.184,369.472 535.5,370C 534.956,370.717 534.289,371.217 533.5,371.5 Z"/></g>
<g><path style="opacity:1" fill="#010404" d="M 606.5,368.5 C 608.587,369.585 609.92,371.251 610.5,373.5C 608.413,372.415 607.08,370.749 606.5,368.5 Z"/></g>
<g><path style="opacity:1" fill="#060a0a" d="M 446.5,376.5 C 446.179,374.952 445.179,374.285 443.5,374.5C 444.287,372.896 445.62,372.229 447.5,372.5C 447.768,374.099 447.434,375.432 446.5,376.5 Z"/></g>
<g><path style="opacity:1" fill="#2a4b4b" d="M 443.5,374.5 C 445.179,374.285 446.179,374.952 446.5,376.5C 446.5,376.833 446.5,377.167 446.5,377.5C 445.5,377.5 444.5,377.5 443.5,377.5C 443.5,376.5 443.5,375.5 443.5,374.5 Z"/></g>
<g><path style="opacity:1" fill="#0f1616" d="M 568.5,374.5 C 568.334,378.514 568.501,382.514 569,386.5C 569.383,385.944 569.883,385.611 570.5,385.5C 570.585,386.995 569.919,387.995 568.5,388.5C 567.188,383.682 567.188,379.015 568.5,374.5 Z"/></g>
<g><path style="opacity:1" fill="#0a1313" d="M 610.5,374.5 C 611.811,379.777 613.811,384.777 616.5,389.5C 616.376,390.107 616.043,390.44 615.5,390.5C 612.781,385.676 610.448,380.676 608.5,375.5C 608.957,374.702 609.624,374.369 610.5,374.5 Z"/></g>
<g><path style="opacity:1" fill="#0a1111" d="M 425.5,365.5 C 424.051,368.051 424.385,370.385 426.5,372.5C 425.05,373.85 424.383,375.516 424.5,377.5C 429.041,378.231 433.041,377.231 436.5,374.5C 437.386,375.325 437.719,376.325 437.5,377.5C 439.5,377.5 441.5,377.5 443.5,377.5C 444.5,377.5 445.5,377.5 446.5,377.5C 447.496,377.414 448.329,377.748 449,378.5C 449.814,383.02 449.647,387.354 448.5,391.5C 445.574,389.659 445.074,387.325 447,384.5C 447.333,384.833 447.667,385.167 448,385.5C 448.78,383.613 448.613,381.946 447.5,380.5C 438.95,380.155 430.617,379.155 422.5,377.5C 423.02,373.653 423.02,369.653 422.5,365.5C 423.5,365.5 424.5,365.5 425.5,365.5 Z"/></g>
<g><path style="opacity:1" fill="#1b2e2e" d="M 422.5,377.5 C 430.617,379.155 438.95,380.155 447.5,380.5C 438.808,380.169 430.141,380.502 421.5,381.5C 418.695,382.254 416.028,383.254 413.5,384.5C 412.833,384.167 412.167,383.833 411.5,383.5C 415.195,381.453 418.862,379.453 422.5,377.5 Z"/></g>
<g><path style="opacity:1" fill="#1d3333" d="M 589.5,391.5 C 589.167,391.5 588.833,391.5 588.5,391.5C 587.194,390.533 586.527,389.199 586.5,387.5C 588.591,387.682 590.591,387.348 592.5,386.5C 593.192,383.855 594.192,381.355 595.5,379C 594.692,378.692 594.025,378.192 593.5,377.5C 594.879,376.137 594.713,375.137 593,374.5C 591.422,375.547 589.922,375.547 588.5,374.5C 589.309,372.929 589.643,371.262 589.5,369.5C 590.833,369.5 592.167,369.5 593.5,369.5C 593.5,370.833 593.5,372.167 593.5,373.5C 594.5,373.5 595.5,373.5 596.5,373.5C 596.5,374.5 596.5,375.5 596.5,376.5C 599.045,377.427 601.378,377.427 603.5,376.5C 604.052,378.003 604.052,379.669 603.5,381.5C 601.328,380.199 598.995,379.199 596.5,378.5C 596.5,381.5 596.5,384.5 596.5,387.5C 594.17,388.81 591.836,390.143 589.5,391.5 Z"/></g>
<g><path style="opacity:1" fill="#071111" d="M 387.5,380.5 C 387.833,380.5 388.167,380.5 388.5,380.5C 389.975,382.41 391.975,383.576 394.5,384C 390.848,385.897 388.515,384.731 387.5,380.5 Z"/></g>
<g><path style="opacity:1" fill="#1e3434" d="M 568.5,374.5 C 567.188,379.015 567.188,383.682 568.5,388.5C 569.919,387.995 570.585,386.995 570.5,385.5C 571.762,382.036 574.096,381.036 577.5,382.5C 578.686,383.705 578.686,385.039 577.5,386.5C 575.551,388.563 573.218,389.896 570.5,390.5C 569.417,390.461 568.417,390.127 567.5,389.5C 566.167,384.167 566.167,378.833 567.5,373.5C 568.107,373.624 568.44,373.957 568.5,374.5 Z"/></g>
<g><path style="opacity:1" fill="#040c0c" d="M 561.5,385.5 C 564.774,386.379 565.107,387.712 562.5,389.5C 561.571,388.311 561.238,386.978 561.5,385.5 Z"/></g>
<g><path style="opacity:1" fill="#151f1f" d="M 675.5,390.5 C 675.5,391.5 675.5,392.5 675.5,393.5C 674.041,393.567 672.708,393.234 671.5,392.5C 672.287,390.896 673.62,390.229 675.5,390.5 Z"/></g>
<g><path style="opacity:1" fill="#1c2f2f" d="M 459.5,385.5 C 460.167,385.5 460.5,385.833 460.5,386.5C 460.369,387.239 460.536,387.906 461,388.5C 461.671,387.748 462.504,387.414 463.5,387.5C 464.167,388.5 464.833,389.5 465.5,390.5C 462.754,394.251 459.42,397.251 455.5,399.5C 455.33,398.178 455.663,397.011 456.5,396C 455.572,395.612 454.905,394.945 454.5,394C 455.711,390.824 457.378,387.991 459.5,385.5 Z"/></g>
<g><path style="opacity:1" fill="#050b0b" d="M 481.5,391.5 C 482.167,391.5 482.833,391.5 483.5,391.5C 483.833,391.5 484.167,391.5 484.5,391.5C 485.167,391.5 485.5,391.833 485.5,392.5C 486.167,392.5 486.833,392.5 487.5,392.5C 489.229,393.236 490.229,394.57 490.5,396.5C 486.372,395.266 482.372,393.766 478.5,392C 479.448,391.517 480.448,391.351 481.5,391.5 Z"/></g>
<g><path style="opacity:1" fill="#142121" d="M 670.5,392.5 C 669.757,395.57 667.757,397.236 664.5,397.5C 664.297,395.61 664.963,394.11 666.5,393C 665.748,392.329 665.414,391.496 665.5,390.5C 666.496,390.586 667.329,390.252 668,389.5C 668.377,390.942 669.21,391.942 670.5,392.5 Z"/></g>
<g><path style="opacity:1" fill="#192a2a" d="M 504.5,392.5 C 504.26,396.763 502.26,398.097 498.5,396.5C 499.313,395.186 500.313,394.019 501.5,393C 500.748,392.329 500.414,391.496 500.5,390.5C 502.59,389.209 503.924,389.876 504.5,392.5 Z"/></g>
<g><path style="opacity:1" fill="#132020" d="M 623.5,385.5 C 624.492,385.328 625.158,385.662 625.5,386.5C 625.369,387.239 625.536,387.906 626,388.5C 626.671,387.748 627.504,387.414 628.5,387.5C 629.239,387.369 629.906,387.536 630.5,388C 627.748,390.831 625.081,393.665 622.5,396.5C 621.722,395.844 621.056,395.011 620.5,394C 622.032,391.379 623.032,388.546 623.5,385.5 Z"/></g>
<g><path style="opacity:1" fill="#060e0e" d="M 646.5,391.5 C 647.167,391.5 647.833,391.5 648.5,391.5C 648.833,391.5 649.167,391.5 649.5,391.5C 650.167,391.5 650.5,391.833 650.5,392.5C 651.167,392.5 651.833,392.5 652.5,392.5C 654.229,393.236 655.229,394.57 655.5,396.5C 651.372,395.266 647.372,393.766 643.5,392C 644.448,391.517 645.448,391.351 646.5,391.5 Z"/></g>
</svg>
